<?xml version="1.0" standalone="no"?>
<!DOCTYPE svg PUBLIC "-//W3C//DTD SVG 20010904//EN"
 "http://www.w3.org/TR/2001/REC-SVG-20010904/DTD/svg10.dtd">
<svg version="1.0" xmlns="http://www.w3.org/2000/svg"
 width="251.000000pt" height="251.000000pt" viewBox="0 0 251.000000 251.000000"
 preserveAspectRatio="xMidYMid meet">
<metadata>
Created by potrace 1.11, written by Peter Selinger 2001-2013
</metadata>
<g transform="translate(0.000000,251.000000) scale(0.100000,-0.100000)"
fill="#000000" stroke="none">
<path d="M787 1684 c-12 -13 -8 -842 4 -850 6 -3 15 -1 19 6 4 6 7 199 6 428
-1 398 -4 441 -29 416z"/>
<path d="M1686 1681 c-3 -4 -4 -197 -3 -427 2 -365 4 -419 17 -419 13 0 15 53
17 405 1 223 0 415 -3 428 -4 22 -18 29 -28 13z"/>
<path d="M164 1668 c-5 -7 -43 -103 -85 -213 l-76 -200 18 -50 c134 -359 158
-410 171 -373 3 7 -30 104 -73 216 l-79 204 75 193 c40 106 75 201 77 210 4
22 -17 31 -28 13z"/>
<path d="M2320 1666 c0 -8 24 -77 53 -153 107 -277 102 -258 83 -306 -76 -189
-136 -361 -132 -374 9 -22 29 -3 45 44 7 21 42 114 78 206 l64 169 -67 176
c-94 250 -95 252 -110 252 -8 0 -14 -6 -14 -14z"/>
<path d="M1264 1634 c-115 -34 -210 -117 -264 -229 -29 -60 -34 -81 -34 -145
0 -87 22 -138 78 -188 76 -67 210 -70 296 -7 l34 25 12 -22 c7 -13 16 -23 20
-23 4 0 19 43 33 95 25 89 28 95 56 100 16 3 29 10 29 15 1 11 -197 20 -223
10 -25 -10 7 -25 52 -25 42 0 44 -4 22 -76 -18 -60 -48 -91 -106 -108 -107
-31 -199 16 -226 114 -18 64 -1 166 43 256 43 91 109 154 189 179 124 39 203
-17 208 -148 1 -28 7 -52 12 -52 12 0 69 224 60 233 -3 4 -21 -11 -38 -32
l-32 -38 -20 22 c-44 49 -125 67 -201 44z"/>
<path d="M320 1393 c-32 -31 -65 -99 -51 -107 5 -3 16 11 24 32 19 47 52 82
77 82 28 0 26 -31 -10 -138 -39 -118 -39 -164 -1 -203 34 -33 78 -38 124 -14
l28 15 -7 -32 c-8 -37 -42 -95 -71 -121 -28 -24 -83 -32 -107 -14 -18 13 -17
15 9 41 25 25 26 29 12 43 -18 19 -54 9 -62 -17 -14 -44 29 -100 77 -100 64 0
145 55 178 120 24 46 113 398 106 417 -8 19 -34 16 -45 -4 -5 -10 -21 -70 -36
-133 -33 -140 -49 -176 -86 -195 -41 -21 -66 -18 -85 10 -20 30 -13 88 21 184
30 83 31 115 5 141 -28 28 -64 25 -100 -7z"/>
<path d="M1900 1393 c-32 -31 -65 -99 -51 -107 5 -3 16 12 25 34 19 48 49 80
76 80 29 0 26 -37 -10 -140 -39 -112 -39 -162 -1 -201 34 -34 92 -40 130 -13
23 17 23 17 16 -17 -9 -38 -42 -95 -72 -122 -28 -24 -83 -32 -107 -14 -18 13
-17 15 9 41 25 25 26 29 12 43 -20 20 -55 8 -63 -21 -14 -57 42 -105 111 -92
46 9 115 63 142 111 25 45 117 401 109 422 -8 19 -34 16 -45 -4 -5 -10 -24
-78 -42 -152 -38 -153 -63 -191 -124 -191 -27 0 -35 5 -45 29 -14 35 -8 79 25
177 30 90 31 118 5 144 -28 28 -64 25 -100 -7z"/>
</g>
</svg>
